<svg width="68" height="18" viewBox="0 0 68 18" fill="none" xmlns="http://www.w3.org/2000/svg">
<path d="M59.0554 0.412109C60.8314 0.412109 62.3834 0.77211 63.7114 1.49211C65.0554 2.19611 66.0874 3.18811 66.8074 4.46811C67.5274 5.74811 67.8874 7.21211 67.8874 8.86011C67.8874 10.4921 67.5194 11.9481 66.7834 13.2281C66.0634 14.5081 65.0314 15.5161 63.6874 16.2521C62.3594 16.9721 60.8154 17.3321 59.0554 17.3321H52.3594V0.412109H59.0554ZM58.6954 13.1801C60.0714 13.1801 61.1514 12.8041 61.9354 12.0521C62.7194 11.3001 63.1114 10.2361 63.1114 8.86011C63.1114 7.46811 62.7194 6.39611 61.9354 5.64411C61.1514 4.87611 60.0714 4.49211 58.6954 4.49211H57.0634V13.1801H58.6954Z" fill="#1E1E1E"/>
<path d="M45.2743 13.7321H50.5303V17.3321H40.5703V0.412109H45.2743V13.7321Z" fill="#1E1E1E"/>
<path d="M37.8915 0.412109V17.3321H33.1875V0.412109H37.8915Z" fill="#1E1E1E"/>
<path d="M20.7095 0.412109V10.2281C20.7095 11.1401 20.9175 11.8441 21.3335 12.3401C21.7655 12.8361 22.4135 13.0841 23.2775 13.0841C24.1415 13.0841 24.7895 12.8361 25.2215 12.3401C25.6695 11.8281 25.8935 11.1241 25.8935 10.2281V0.412109H30.5975V10.2281C30.5975 11.7801 30.2695 13.1081 29.6135 14.2121C28.9575 15.3001 28.0615 16.1241 26.9255 16.6841C25.8055 17.2281 24.5575 17.5001 23.1815 17.5001C21.8055 17.5001 20.5735 17.2281 19.4855 16.6841C18.4135 16.1241 17.5655 15.3001 16.9415 14.2121C16.3335 13.1241 16.0295 11.7961 16.0295 10.2281V0.412109H20.7095Z" fill="#1E1E1E"/>
<path d="M10.8 8.64411C11.792 8.86811 12.576 9.36411 13.152 10.1321C13.744 10.8841 14.04 11.7481 14.04 12.7241C14.04 14.1641 13.544 15.2921 12.552 16.1081C11.56 16.9241 10.168 17.3321 8.376 17.3321H0V0.412109H8.112C9.84 0.412109 11.192 0.79611 12.168 1.56411C13.16 2.33211 13.656 3.41211 13.656 4.80411C13.656 5.79611 13.392 6.62811 12.864 7.30011C12.352 7.95611 11.664 8.40411 10.8 8.64411ZM4.704 7.13211H7.08C8.264 7.13211 8.856 6.64411 8.856 5.66811C8.856 4.66011 8.264 4.15611 7.08 4.15611H4.704V7.13211ZM7.44 13.5401C8.624 13.5401 9.216 13.0441 9.216 12.0521C9.216 11.5401 9.056 11.1481 8.736 10.8761C8.432 10.6041 7.992 10.4681 7.416 10.4681H4.704V13.5401H7.44Z" fill="#1E1E1E"/>
</svg>
